<svg xmlns="http://www.w3.org/2000/svg" width="36.941" height="37.163" viewBox="0 0 36.941 37.163">
  <path id="Pfad_4" data-name="Pfad 4" d="M333.789,8.874c2.822-.561,5.64-1.146,8.463-1.7q.01,7.357,0,14.714a18.391,18.391,0,0,1,5.075-4.36,17.062,17.062,0,0,1,7.212-2.252,14.225,14.225,0,0,1,5.668.7,11.849,11.849,0,0,1,5.521,3.878,12.024,12.024,0,0,1,2.472,7.369,14.984,14.984,0,0,1-1.784,6.918,17.607,17.607,0,0,1-3.261,4.358,5.72,5.72,0,0,0-.555.554c2.646.274,5.281.641,7.907,1.065-.211.614-.509,1.2-.756,1.8l-1.048,2.418a128.973,128.973,0,0,0-13.376-1.248c-.375-.033-.752-.022-1.126-.061-.046-.611-.095-1.222-.139-1.832a14.449,14.449,0,0,0,5.4-4.791,9.482,9.482,0,0,0,1.671-6.057,6.894,6.894,0,0,0-1.592-3.8,8.191,8.191,0,0,0-5.026-2.657,12.968,12.968,0,0,0-7.776,1.38,14.172,14.172,0,0,0-4.248,3.365c-.1.13-.264.246-.243.43,0,4.532.006,9.063,0,13.595-2.1.124-4.2.292-6.305.406.025-2.545-.111-5.087-.235-7.628-.253-4.746-.58-9.487-.947-14.225-.276-3.426-.558-6.853-.937-10.27-.077-.669-.153-1.338-.257-2C333.642,8.913,333.715,8.892,333.789,8.874Z" transform="translate(-333.57 -7.17)" fill="#d2232a"/>
</svg>
